<svg width="27" height="30" viewBox="0 0 27 30" fill="none" xmlns="http://www.w3.org/2000/svg">
<path d="M27 9V28.4895C27.0014 28.6865 26.964 28.8818 26.8898 29.0643C26.8157 29.2468 26.7064 29.413 26.5681 29.5532C26.4298 29.6935 26.2652 29.8052 26.0837 29.8818C25.9023 29.9585 25.7075 29.9986 25.5105 30H1.4895C1.09472 30 0.716087 29.8433 0.436795 29.5643C0.157502 29.2853 0.000397563 28.9068 0 28.512V1.488C0 0.6825 0.6735 0 1.503 0H17.9955L27 9ZM24 10.5H16.5V3H3V27H24V10.5ZM7.5 7.5H12V10.5H7.5V7.5ZM7.5 13.5H19.5V16.5H7.5V13.5ZM7.5 19.5H19.5V22.5H7.5V19.5Z" fill="#0E121B"/>
</svg>
