<svg width="27" height="30" viewBox="0 0 27 30" fill="none" xmlns="http://www.w3.org/2000/svg">
<path d="M18 3H3V27H24V9H18V3ZM0 1.488C0 0.666 0.6705 0 1.4985 0H19.5L27 7.5V28.4895C27.0014 28.6865 26.964 28.8818 26.8898 29.0643C26.8157 29.2468 26.7064 29.413 26.5681 29.5532C26.4298 29.6935 26.2652 29.8052 26.0837 29.8818C25.9023 29.9585 25.7075 29.9986 25.5105 30H1.4895C1.09557 29.9973 0.718526 29.8396 0.439826 29.5612C0.161127 29.2828 0.00314197 28.9059 0 28.512V1.488ZM13.5 14.25C12.5054 14.25 11.5516 13.8549 10.8483 13.1517C10.1451 12.4484 9.75 11.4946 9.75 10.5C9.75 9.50544 10.1451 8.55161 10.8483 7.84835C11.5516 7.14509 12.5054 6.75 13.5 6.75C14.4946 6.75 15.4484 7.14509 16.1516 7.84835C16.8549 8.55161 17.25 9.50544 17.25 10.5C17.25 11.4946 16.8549 12.4484 16.1516 13.1517C15.4484 13.8549 14.4946 14.25 13.5 14.25ZM6.7905 22.5C6.97233 20.8476 7.75752 19.3204 8.99562 18.2111C10.2337 17.1018 11.8376 16.4883 13.5 16.4883C15.1624 16.4883 16.7663 17.1018 18.0044 18.2111C19.2425 19.3204 20.0277 20.8476 20.2095 22.5H6.7905Z" fill="#99A0AE"/>
</svg>
