<svg width="30" height="29" viewBox="0 0 30 29" fill="none" xmlns="http://www.w3.org/2000/svg">
<path d="M16.5007 9V21C16.5007 22.1935 16.0266 23.3381 15.1827 24.182C14.3388 25.0259 13.1942 25.5 12.0007 25.5H8.74573C8.39187 26.5012 7.69544 27.3451 6.77952 27.8825C5.86361 28.4199 4.7872 28.6162 3.74055 28.4367C2.6939 28.2572 1.74442 27.7134 1.05992 26.9016C0.375427 26.0897 0 25.0619 0 24C0 22.9381 0.375427 21.9103 1.05992 21.0984C1.74442 20.2866 2.6939 19.7428 3.74055 19.5633C4.7872 19.3838 5.86361 19.5801 6.77952 20.1175C7.69544 20.6549 8.39187 21.4988 8.74573 22.5H12.0007C12.3986 22.5 12.7801 22.342 13.0614 22.0607C13.3427 21.7794 13.5007 21.3978 13.5007 21V9C13.5007 7.80653 13.9748 6.66193 14.8188 5.81802C15.6627 4.97411 16.8073 4.5 18.0007 4.5H22.5007V0L30.0007 6L22.5007 12V7.5H18.0007C17.6029 7.5 17.2214 7.65804 16.9401 7.93934C16.6588 8.22064 16.5007 8.60218 16.5007 9ZM4.50073 25.5C4.89856 25.5 5.28009 25.342 5.56139 25.0607C5.8427 24.7794 6.00073 24.3978 6.00073 24C6.00073 23.6022 5.8427 23.2206 5.56139 22.9393C5.28009 22.658 4.89856 22.5 4.50073 22.5C4.10291 22.5 3.72138 22.658 3.44007 22.9393C3.15877 23.2206 3.00073 23.6022 3.00073 24C3.00073 24.3978 3.15877 24.7794 3.44007 25.0607C3.72138 25.342 4.10291 25.5 4.50073 25.5Z" fill="#99A0AE"/>
</svg>
