<svg width="33" height="33" viewBox="0 0 33 33" fill="none" xmlns="http://www.w3.org/2000/svg">
<path d="M11.4833 4.38969L15.4298 0.443219C15.7137 0.159426 16.0987 0 16.5001 0C16.9015 0 17.2864 0.159426 17.5703 0.443219L21.5168 4.38969H27.0967C27.4981 4.38969 27.8832 4.54918 28.1671 4.83307C28.451 5.11696 28.6104 5.502 28.6104 5.90349V11.4833L32.5569 15.4298C32.8407 15.7137 33.0001 16.0987 33.0001 16.5001C33.0001 16.9015 32.8407 17.2864 32.5569 17.5703L28.6104 21.5168V27.0967C28.6104 27.4981 28.451 27.8832 28.1671 28.1671C27.8832 28.451 27.4981 28.6104 27.0967 28.6104H21.5168L17.5703 32.5569C17.2864 32.8407 16.9015 33.0001 16.5001 33.0001C16.0987 33.0001 15.7137 32.8407 15.4298 32.5569L11.4833 28.6104H5.90349C5.502 28.6104 5.11696 28.451 4.83307 28.1671C4.54918 27.8832 4.38969 27.4981 4.38969 27.0967V21.5168L0.443219 17.5703C0.159426 17.2864 0 16.9015 0 16.5001C0 16.0987 0.159426 15.7137 0.443219 15.4298L4.38969 11.4833V5.90349C4.38969 5.502 4.54918 5.11696 4.83307 4.83307C5.11696 4.54918 5.502 4.38969 5.90349 4.38969H11.4833ZM7.41728 7.41728V12.7383L3.6555 16.5001L7.41728 20.2619V25.5829H12.7383L16.5001 29.3446L20.2619 25.5829H25.5829V20.2619L29.3446 16.5001L25.5829 12.7383V7.41728H20.2619L16.5001 3.6555L12.7383 7.41728H7.41728ZM16.5001 22.5553C14.8941 22.5553 13.354 21.9173 12.2184 20.7817C11.0828 19.6462 10.4449 18.106 10.4449 16.5001C10.4449 14.8941 11.0828 13.354 12.2184 12.2184C13.354 11.0828 14.8941 10.4449 16.5001 10.4449C18.106 10.4449 19.6462 11.0828 20.7817 12.2184C21.9173 13.354 22.5553 14.8941 22.5553 16.5001C22.5553 18.106 21.9173 19.6462 20.7817 20.7817C19.6462 21.9173 18.106 22.5553 16.5001 22.5553ZM16.5001 19.5277C17.303 19.5277 18.0731 19.2087 18.6409 18.6409C19.2087 18.0731 19.5277 17.303 19.5277 16.5001C19.5277 15.6971 19.2087 14.927 18.6409 14.3592C18.0731 13.7915 17.303 13.4725 16.5001 13.4725C15.6971 13.4725 14.927 13.7915 14.3592 14.3592C13.7915 14.927 13.4725 15.6971 13.4725 16.5001C13.4725 17.303 13.7915 18.0731 14.3592 18.6409C14.927 19.2087 15.6971 19.5277 16.5001 19.5277Z" fill="#99A0AE"/>
</svg>
