<svg width="27" height="27" viewBox="0 0 27 27" fill="none" xmlns="http://www.w3.org/2000/svg">
<path d="M3.55958 0.311405C4.51458 -0.0292867 5.54667 -0.0919057 6.53585 0.130828C7.52504 0.353562 8.43068 0.852499 9.14749 1.56963C9.86431 2.28676 10.3628 3.19263 10.5851 4.18192C10.8074 5.1712 10.7443 6.20326 10.4032 7.15811L26.9997 23.7546L23.7523 27.0004L7.15586 10.4055C6.20085 10.7462 5.16877 10.8088 4.17958 10.5861C3.19039 10.3633 2.28475 9.86438 1.56794 9.14725C0.851126 8.43012 0.352594 7.52425 0.130303 6.53497C-0.0919889 5.54568 -0.0289085 4.51362 0.31221 3.55877L3.73403 6.98212C3.94579 7.20137 4.19908 7.37624 4.47914 7.49655C4.7592 7.61685 5.06042 7.68018 5.36521 7.68282C5.67001 7.68547 5.97228 7.62739 6.25438 7.51197C6.53649 7.39655 6.79279 7.22611 7.00832 7.01058C7.22385 6.79505 7.3943 6.53875 7.50972 6.25664C7.62514 5.97453 7.68322 5.67226 7.68057 5.36747C7.67792 5.06267 7.6146 4.76146 7.49429 4.4814C7.37399 4.20134 7.19911 3.94804 6.97987 3.73629L3.55804 0.309875L3.55958 0.311405ZM19.4245 3.19455L24.294 0.488924L26.4579 2.65281L23.7523 7.52233L21.0467 8.06407L17.8024 11.3099L15.637 9.14601L18.8828 5.90018L19.4245 3.19455ZM8.60355 15.0975L11.8494 18.3448L4.27424 25.92C3.85652 26.3338 3.29593 26.5715 2.70807 26.5842C2.12021 26.5968 1.54992 26.3834 1.1148 25.9879C0.679675 25.5924 0.412902 25.0451 0.369493 24.4587C0.326083 23.8723 0.509348 23.2916 0.881494 22.8364L1.02994 22.6726L8.60508 15.0975H8.60355Z" fill="#99A0AE"/>
</svg>
